<svg viewBox="0 0 200 200" xmlns="http://www.w3.org/2000/svg">
  <path d="M36.5,-56.8C46.7,-57.3,54.1,-46.4,62.7,-35C71.3,-23.7,81.1,-11.8,80.9,-0.1C80.7,11.6,70.6,23.3,60.6,32.3C50.7,41.3,41,47.7,30.9,57.6C20.8,67.5,10.4,80.8,2.9,75.9C-4.7,70.9,-9.3,47.6,-23,39.7C-36.6,31.9,-59.2,39.6,-65.8,35.5C-72.3,31.5,-62.8,15.7,-58.9,2.3C-55,-11.2,-56.7,-22.4,-51.6,-29.1C-46.5,-35.7,-34.7,-37.6,-25,-37.5C-15.3,-37.3,-7.6,-34.9,2.7,-39.6C13.1,-44.4,26.2,-56.3,36.5,-56.8Z" transform="translate(100 100)" />
</svg>
